<svg width="36" height="46" viewBox="0 0 36 46" fill="none" xmlns="http://www.w3.org/2000/svg">
<g opacity="0.991">
<path d="M35.2138 45.1667H0V41.4647H35.2138V45.1667Z" fill="#E6B774"/>
<path d="M15.0788 41.0132H2.79905V39.388H15.0788V41.0132Z" fill="#E6B774"/>
<path d="M32.3245 41.0132H20.1351V39.388H32.3245V41.0132Z" fill="#E6B774"/>
<path d="M14.537 39.2074H3.3408V38.4851H14.537V39.2074Z" fill="#E6B774"/>
<path d="M31.873 39.2074H20.5866V38.4851H31.873V39.2074Z" fill="#E6B774"/>
<path fill-rule="evenodd" clip-rule="evenodd" d="M20.5866 3.49694C24.3488 3.43674 28.1109 3.43674 31.873 3.49694L29.2997 6.07026C29.2395 15.9723 29.2395 25.8743 29.2997 35.7763L31.873 38.3496C28.1109 38.4098 24.3488 38.4098 20.5866 38.3496L23.1599 35.7763C23.205 29.1249 23.2201 22.4733 23.205 15.8218H11.9185C11.9035 22.4433 11.9185 29.0646 11.9637 35.686C12.8378 36.545 13.6956 37.4179 14.537 38.3045C10.805 38.4248 7.07286 38.4248 3.3408 38.3045C4.18223 37.4179 5.04001 36.545 5.91412 35.686C5.97432 25.8141 5.97432 15.9421 5.91412 6.07026C5.06824 5.20927 4.21047 4.36655 3.3408 3.54209C7.05799 3.42193 10.7901 3.42193 14.537 3.54209C13.6956 4.42868 12.8378 5.30151 11.9637 6.16055C11.9185 8.53805 11.9035 10.9158 11.9185 13.2936H23.205C23.2201 10.8856 23.205 8.47786 23.1599 6.07026L20.5866 3.49694ZM7.13306 35.5054H8.03598V6.79259H7.13306V35.5054ZM9.57094 35.5054H10.4739V6.79259H9.57094V35.5054ZM24.74 35.5054H25.6429V6.79259H24.74V35.5054ZM27.1779 35.5054H28.0808V6.79259H27.1779V35.5054Z" fill="#E6B774"/>
<path d="M14.537 3.27121H3.3408V2.54887H14.537V3.27121Z" fill="#E6B774"/>
<path d="M31.873 3.27121H20.5866V2.54887H31.873V3.27121Z" fill="#E6B774"/>
<path d="M15.0788 2.45858H2.79905V0.833328H15.0788V2.45858Z" fill="#E6B774"/>
<path d="M32.3245 2.45858H20.1351V0.833328H32.3245V2.45858Z" fill="#E6B774"/>
</g>
</svg>
